HIERARCHY
ROOT Hips
{
  OFFSET 0 0 0
  CHANNELS 6 Xposition Yposition Zposition Zrotation Yrotation Xrotation
  JOINT LeftThigh
  {
    OFFSET 8.409438 0 -5.917753
    CHANNELS 3 Zrotation Yrotation Xrotation
    JOINT LeftLeg
    {
      OFFSET 0 0 -42.358652
      CHANNELS 3 Zrotation Yrotation Xrotation
      JOINT LeftFoot
      {
        OFFSET 0 0 -39.357303
        CHANNELS 3 Zrotation Yrotation Xrotation
      }
    }
  }
  JOINT RightThigh
  {
    OFFSET -8.409438 0 -5.917753
    CHANNELS 3 Zrotation Yrotation Xrotation
    JOINT RightLeg
    {
      OFFSET 0 0 -42.358652
      CHANNELS 3 Zrotation Yrotation Xrotation
      JOINT RightFoot
      {
        OFFSET 0 0 -39.357303
        CHANNELS 3 Zrotation Yrotation Xrotation
      }
    }
  }
  JOINT SpineLow
  {
    OFFSET 0 0 4.719101
    CHANNELS 3 Zrotation Yrotation Xrotation
    JOINT SpineMid
    {
      OFFSET 0 0 12.899191
      CHANNELS 3 Zrotation Yrotation Xrotation
      JOINT Chest
      {
        OFFSET 0 0 12.899191
        CHANNELS 3 Zrotation Yrotation Xrotation
        JOINT LeftShoulder
        {
          OFFSET 7.550562 1.41573 9.438202
          CHANNELS 3 Zrotation Yrotation Xrotation
          JOINT LeftArm
          {
            OFFSET 9.155056 0 4.247191
            CHANNELS 3 Zrotation Yrotation Xrotation
            JOINT LeftForearm
            {
              OFFSET 0 0 25.771955
              CHANNELS 3 Zrotation Yrotation Xrotation
              JOINT LeftHand
              {
                OFFSET 0 0 25.197169
                CHANNELS 3 Zrotation Yrotation Xrotation
              }
            }
          }
        }
        JOINT RightShoulder
        {
          OFFSET -7.550562 1.41573 9.438202
          CHANNELS 3 Zrotation Yrotation Xrotation
          JOINT RightArm
          {
            OFFSET -9.155056 0 4.247191
            CHANNELS 3 Zrotation Yrotation Xrotation
            JOINT RightForearm
            {
              OFFSET 0 0 -25.771955
              CHANNELS 3 Zrotation Yrotation Xrotation
              JOINT RightHand
              {
                OFFSET 0 0 -25.197169
                CHANNELS 3 Zrotation Yrotation Xrotation
              }
            }
          }
        }
        JOINT Neck
        {
          OFFSET 0 0 15.101124
          CHANNELS 3 Zrotation Yrotation Xrotation
          JOINT Head
          {
            OFFSET 0 0 11.325843
            CHANNELS 3 Zrotation Yrotation Xrotation
            End Site
            {
              OFFSET 0 0 14.157303
            }
          }
        }
      }
    }
  }
}
MOTION
Frames: 11
Frame Time: 0.0
0.0  101.685394  0.0  -1.291664  -32.225841  -102.334233  23.630796  -20.835126  11.378952  -2.013566  6.308058  26.36261  7.051395  5.091147  3.322161  -1.21454  1.32014  -9.459323  0.463922  11.612813  24.271919  22.710522  7.487077  -0.615222  -6.354636  -0.864207  3.005797  -17.449378  -1.554042  8.378512  -17.449378  -1.554042  8.378512  -4.470472  12.76149  0.797342  51.324085  57.585192  81.985367  -14.802677  -27.987891  130.749944  141.259331  -1.093062  -16.767686  14.220178  11.361945  16.186164  92.43667  -3.749342  59.655965  -41.743368  -33.029846  -109.429687  44.389612  41.127027  -8.536992  25.287668  4.479792  -4.378309  18.989276  3.185278  -3.474995  
0.0  101.685394  0.0  -1.242676  -31.895257  -102.329099  23.771058  -20.855837  11.721127  -2.268395  6.141474  25.586857  7.011534  5.051672  3.32891  -1.29495  1.566711  -9.371504  0.735059  11.59262  24.15263  22.511132  7.260379  -0.777089  -6.355326  -0.92601  3.05204  -17.460396  -1.70901  8.520432  -17.460397  -1.70901  8.520432  -4.725676  12.920869  0.602224  52.689982  56.822613  83.323907  -14.928671  -28.088085  130.975674  141.429531  -1.412807  -16.00256  14.624122  11.26164  16.518425  93.724281  -3.263539  59.56357  -42.743072  -32.413492  -109.494829  45.83967  40.988336  -7.374394  25.07231  4.61871  -4.738404  18.831139  3.276351  -3.74939  
0.0  101.685394  0.0  -1.181336  -31.458829  -102.399707  23.772647  -20.909861  12.073984  -2.410318  6.093362  24.995067  7.079778  4.965889  3.355776  -1.428546  1.768163  -9.123218  0.539176  11.690886  23.825364  22.676115  7.091844  -0.827342  -6.381065  -0.976302  3.097319  -17.538398  -1.829734  8.65716  -17.538399  -1.829734  8.65716  -4.746201  13.08937  0.393723  53.999671  56.0827  84.569387  -14.726224  -28.344848  130.955816  141.658559  -1.390033  -15.28053  15.467895  11.13909  16.901588  94.819829  -2.889602  59.509163  -44.268583  -31.85527  -108.763143  46.807482  40.771594  -7.058981  24.946218  4.786509  -5.035466  18.739669  3.39126  -3.978228  
0.0  101.685394  0.0  -1.17932  -30.927038  -102.39134  23.531067  -20.959661  12.245098  -2.459889  6.130526  24.584655  7.138781  4.863632  3.373452  -1.715029  2.013658  -9.011703  0.383477  11.772631  23.614537  22.82558  6.860215  -0.889609  -6.409486  -1.033489  3.137385  -17.624816  -1.970006  8.781788  -17.624816  -1.970006  8.781787  -4.625268  13.246117  0.16179  54.966114  55.583022  85.503715  -14.271843  -28.54183  130.648628  141.892873  -1.253993  -14.677182  16.362675  11.102532  17.373503  95.792483  -2.376501  59.481952  -46.11087  -31.018535  -107.656548  47.429989  40.4332  -7.114122  24.749715  4.941992  -5.327476  18.595478  3.497819  -4.20206  
0.0  101.685394  0.0  -1.182453  -30.299755  -102.340961  23.356182  -20.998318  12.302023  -2.594392  6.181729  24.28412  7.134797  4.775395  3.417702  -2.125182  2.211706  -8.873391  0.20092  11.853486  23.379549  23.05632  6.717678  -0.898034  -6.395426  -1.08826  3.18324  -17.595337  -2.107874  8.920662  -17.595338  -2.107874  8.920662  -4.698605  13.262535  -0.109599  55.821274  55.388402  86.392711  -13.672184  -28.807675  130.043584  142.103964  -0.952893  -14.209443  17.058109  11.044116  17.735137  96.585202  -1.764584  59.474666  -47.699978  -29.813655  -106.76974  48.452425  40.00735  -6.532684  24.497716  5.14227  -5.60869  18.409935  3.639146  -4.41891  
0.0  101.685394  0.0  -1.232214  -29.456822  -102.22459  22.988595  -21.00866  12.149814  -2.653697  6.217877  24.244852  6.991588  4.705996  3.447351  -3.685208  2.496578  -9.168286  0.897993  11.68092  23.510921  23.290938  6.65677  -0.857626  -6.311929  -1.131108  3.230332  -17.374925  -2.222867  9.057989  -17.374926  -2.222866  9.05799  -5.134823  13.073309  -0.327028  56.384939  55.396289  87.114382  -13.124126  -29.043483  129.296781  142.137755  -0.664862  -13.909937  17.184191  10.782644  18.053438  97.354075  -1.016807  59.494351  -49.298534  -28.278404  -106.068856  50.089834  39.314594  -5.082559  23.840583  5.212682  -5.968549  17.921  3.683727  -4.685782  
0.0  101.685394  0.0  -1.139776  -28.565379  -102.239677  22.594394  -20.928617  11.971613  -2.65079  6.219073  24.452248  6.712724  4.709649  3.43941  -4.433479  2.748187  -9.019903  0.968341  11.702947  23.387114  23.317458  6.667691  -0.826931  -6.150766  -1.127664  3.253543  -16.935301  -2.230017  9.116166  -16.935301  -2.230017  9.116166  -5.901433  12.766661  -0.308949  56.874112  55.577646  87.770211  -12.651577  -29.321346  128.487483  142.039606  -0.392326  -13.798656  16.851207  10.354061  18.507135  98.170014  -0.202905  59.432861  -51.223764  -26.441099  -104.834353  51.962131  38.593165  -3.38443  23.072139  5.206916  -6.181717  17.346943  3.67847  -4.838467  
0.0  101.685394  0.0  -1.013913  -27.600177  -102.271513  22.086784  -20.833888  11.718427  -2.575004  6.246363  24.83517  6.294468  4.726913  3.373972  -5.180979  2.990342  -8.923094  1.031291  11.792491  23.300728  23.286855  6.665836  -0.740816  -6.008069  -1.119153  3.250133  -16.544673  -2.227796  9.101243  -16.544674  -2.227795  9.101243  -6.378917  12.669115  -0.113903  57.024772  56.022545  88.201323  -12.184389  -29.658332  127.715898  141.922159  -0.057975  -13.74126  16.609587  9.964569  19.029486  99.019562  0.573751  59.304735  -53.612567  -24.280522  -102.992429  53.643438  37.83865  -1.823386  22.319131  5.154529  -6.290827  16.783209  3.642374  -4.911522  
0.0  101.685394  0.0  -0.861524  -26.610703  -102.334361  21.593559  -20.754178  11.46001  -2.584008  6.378492  25.235196  5.928989  4.759035  3.339501  -5.788902  3.237447  -8.867635  1.028193  11.89799  23.267589  23.218526  6.692551  -0.578307  -5.930363  -1.120242  3.242282  -16.332661  -2.243538  9.078295  -16.332663  -2.243538  9.078295  -6.45883  12.737188  0.03383  57.349541  56.671041  88.840696  -11.76746  -30.158829  126.885312  141.716099  0.225116  -13.71403  16.821143  9.823069  19.682308  99.833372  1.485378  59.054965  -56.298522  -21.77704  -100.897618  54.900042  36.94542  -0.480236  21.954359  5.259438  -6.237304  16.509914  3.726692  -4.871671  
0.0  101.685394  0.0  -0.679086  -25.518558  -102.435017  21.089294  -20.662689  11.252173  -2.078353  6.485754  26.06593  5.192485  4.722249  3.035402  -6.409465  3.59352  -8.888963  1.118201  11.903154  23.440487  22.967885  6.77587  -0.463409  -5.882962  -1.112653  3.22538  -16.201817  -2.233733  9.029325  -16.201816  -2.233733  9.029324  -5.965984  13.078152  0.283893  60.649217  57.41305  91.39444  -12.119661  -32.445517  127.517732  141.400853  0.437979  -13.657004  17.139921  9.605306  20.274195  100.613418  2.338413  58.847445  -58.931244  -19.050383  -98.931078  55.807368  35.905248  0.819105  21.574466  5.22388  -6.084998  16.223553  3.709035  -4.752584  
0.0  101.685394  0.0  -0.483461  -24.367422  -102.52805  20.618344  -20.554681  11.031728  -2.486618  6.767203  26.2854  5.105707  4.738126  3.028794  -7.032325  4.060875  -8.928055  0.944996  11.845847  23.6048  22.800423  6.910401  -0.376145  -5.827512  -1.09833  3.192267  -16.047635  -2.210665  8.934471  -16.047635  -2.210665  8.934471  -5.802632  13.188549  0.551022  61.236968  58.443454  92.421665  -11.795004  -33.041063  126.756624  140.987592  0.6202  -13.53743  17.570504  9.361563  21.006271  101.227911  3.324114  58.491683  -61.270406  -16.404671  -97.299467  56.464223  34.784236  2.026229  21.323825  5.314514  -5.883284  16.034319  3.786519  -4.601953  
